<?xml version="1.0" encoding="UTF-8" standalone="no"?>
<!-- Generator: Adobe Illustrator 24.2.1, SVG Export Plug-In . SVG Version: 6.00 Build 0)  -->

<svg
   xmlns:dc="http://purl.org/dc/elements/1.1/"
   xmlns:cc="http://creativecommons.org/ns#"
   xmlns:rdf="http://www.w3.org/1999/02/22-rdf-syntax-ns#"
   xmlns:svg="http://www.w3.org/2000/svg"
   xmlns="http://www.w3.org/2000/svg"
   xmlns:sodipodi="http://sodipodi.sourceforge.net/DTD/sodipodi-0.dtd"
   xmlns:inkscape="http://www.inkscape.org/namespaces/inkscape"
   version="1.1"
   id="Layer_1"
   x="0px"
   y="0px"
   viewBox="0 0 1600 900"
   style="enable-background:new 0 0 1600 900;"
   xml:space="preserve"
   sodipodi:docname="bg-transparent.svg"
   inkscape:version="0.92.4 (5da689c313, 2019-01-14)"><metadata
   id="metadata233"><rdf:RDF><cc:Work
       rdf:about=""><dc:format>image/svg+xml</dc:format><dc:type
         rdf:resource="http://purl.org/dc/dcmitype/StillImage" /><dc:title></dc:title></cc:Work></rdf:RDF></metadata><defs
   id="defs231">
	
	
	
		
	
	
	
	
	
	
	
	
	
	
	
	
	
	
	
		
	
	
	
		
	
	
	
	
	
	
	
	
	
	
	
	
	
	
	
	
	
	
	
	
	
	
	
	
	
	
	
	
	
	
	
	
	
	
	
	
	
	
	
	
	
	
	
	
	
	
	
	
	
	
	
	
	
	
	
	
	
		
	
	
	
	
	
	
	
	
	
	
	
	
	
		
	
	
	
	
	
	
	
	
	
	
	
	
	
	
	
	
	
	
	
</defs><sodipodi:namedview
   pagecolor="#ffffff"
   bordercolor="#666666"
   borderopacity="1"
   objecttolerance="10"
   gridtolerance="10"
   guidetolerance="10"
   inkscape:pageopacity="0"
   inkscape:pageshadow="2"
   inkscape:window-width="1920"
   inkscape:window-height="1018"
   id="namedview229"
   showgrid="false"
   inkscape:zoom="0.805"
   inkscape:cx="620.61959"
   inkscape:cy="430.37395"
   inkscape:window-x="0"
   inkscape:window-y="32"
   inkscape:window-maximized="1"
   inkscape:current-layer="g1313"
   inkscape:snap-bbox="true" />
<style
   type="text/css"
   id="style2">
	.st0{fill:#12202F;}
	.st1{fill:#243240;}
</style>

<g
   id="g1313"><path
     class="st1"
     d="m 759.8,366.1 c -23.3,0 -42.2,19 -42.2,42.2 0,23.2 19,42.2 42.2,42.2 23.2,0 42.2,-19 42.2,-42.2 0,-23.2 -18.9,-42.2 -42.2,-42.2 z m 0,82.5 c -22.2,0 -40.2,-18.1 -40.2,-40.2 0,-22.1 18.1,-40.2 40.2,-40.2 22.1,0 40.2,18.1 40.2,40.2 0,22.1 -18,40.2 -40.2,40.2 z"
     id="path6"
     inkscape:connector-curvature="0"
     style="fill:#ffffff;stroke:none;fill-opacity:1;opacity:0.10649351" /><polygon
     class="st1"
     points="760.8,377.3 758.8,377.3 758.8,407.9 734.3,431.9 735.7,433.3 760.8,408.8 "
     id="polygon8"
     style="fill:#ffffff;stroke:none;fill-opacity:1;opacity:0.10649351" /><rect
     x="-245.76767"
     y="764.98181"
     transform="rotate(-45)"
     class="st1"
     width="11.999885"
     height="11.999885"
     id="rect10"
     style="fill:#ffffff;stroke-width:0.9999904;stroke:none;fill-opacity:1;opacity:0.10649351" /><path
     class="st1"
     d="m 638.2,714.7 10.6,10.6 10.6,-10.6 -10.6,-10.6 z m 10.6,6.3 -6.3,-6.3 6.3,-6.3 6.3,6.3 z"
     id="path12"
     inkscape:connector-curvature="0"
     style="fill:#ffffff;stroke:none;fill-opacity:1;opacity:0.10649351" /><path
     class="st1"
     d="m 638.2,737.4 10.6,10.6 10.6,-10.6 -10.6,-10.6 z m 10.6,6.3 -6.3,-6.3 6.3,-6.3 6.3,6.3 z"
     id="path14"
     inkscape:connector-curvature="0"
     style="fill:#ffffff;stroke:none;fill-opacity:1;opacity:0.10649351" /><path
     class="st1"
     d="m 638.2,760.1 10.6,10.6 10.6,-10.6 -10.6,-10.6 z m 10.6,6.3 -6.3,-6.3 6.3,-6.3 6.3,6.3 z"
     id="path16"
     inkscape:connector-curvature="0"
     style="fill:#ffffff;stroke:none;fill-opacity:1;opacity:0.10649351" /><path
     class="st1"
     d="m 638.2,782.7 10.6,10.6 10.6,-10.6 -10.6,-10.6 z m 10.6,6.4 -6.3,-6.3 6.3,-6.3 6.3,6.3 z"
     id="path18"
     inkscape:connector-curvature="0"
     style="fill:#ffffff;stroke:none;fill-opacity:1;opacity:0.10649351" /><path
     class="st1"
     d="m 638.2,805.4 10.6,10.6 10.6,-10.6 -10.6,-10.6 z m 10.6,6.4 -6.3,-6.3 6.3,-6.3 6.3,6.3 z"
     id="path20"
     inkscape:connector-curvature="0"
     style="fill:#ffffff;stroke:none;fill-opacity:1;opacity:0.10649351" /><polygon
     class="st1"
     points="551.7,806.9 627.3,806.9 627.3,803.9 554.7,803.9 554.7,784.2 627.3,784.2 627.3,781.2 554.7,781.2 554.7,761.6 627.3,761.6 627.3,758.6 554.7,758.6 554.7,738.9 627.3,738.9 627.3,735.9 554.7,735.9 554.7,716.2 627.3,716.2 627.3,713.2 553.2,713.2 551.7,713.2 394.8,713.2 394.8,716.2 551.7,716.2 "
     id="polygon22"
     style="fill:#ffffff;stroke:none;fill-opacity:1;opacity:0.10649351" /><path
     class="st1"
     d="m 410.1,232.7 c 23.3,0 42.2,-19 42.2,-42.2 0,-23.2 -19,-42.2 -42.2,-42.2 -23.2,0 -42.2,19 -42.2,42.2 0,23.2 18.9,42.2 42.2,42.2 z m 0,-82.5 c 22.2,0 40.2,18.1 40.2,40.2 0,22.1 -18.1,40.2 -40.2,40.2 -22.1,0 -40.2,-18.1 -40.2,-40.2 0,-22.1 18,-40.2 40.2,-40.2 z"
     id="path24"
     inkscape:connector-curvature="0"
     style="fill:#ffffff;stroke:none;fill-opacity:1;opacity:0.10649351" /><polygon
     class="st1"
     points="398.6,192.3 405.7,199.5 421.7,183.5 420.3,182.1 405.7,196.6 400,190.9 "
     id="polygon26"
     style="fill:#ffffff;stroke:none;fill-opacity:1;opacity:0.10649351" /><circle
     transform="rotate(-9.2183636)"
     class="st1"
     cx="360.12451"
     cy="146.8828"
     id="ellipse28"
     r="10.100154"
     style="fill:#ffffff;stroke-width:1.00001526;stroke:none;fill-opacity:1;opacity:0.10649351" /><path
     class="st1"
     d="m 413,98.5 c 6.1,0 11.1,-5 11.1,-11.1 0,-6.1 -5,-11.1 -11.1,-11.1 -6.1,0 -11.1,5 -11.1,11.1 0,6.1 4.9,11.1 11.1,11.1 z m 0,-20.3 c 5,0 9.1,4.1 9.1,9.1 0,5 -4.1,9.1 -9.1,9.1 -5,0 -9.1,-4.1 -9.1,-9.1 0,-5 4,-9.1 9.1,-9.1 z"
     id="path30"
     inkscape:connector-curvature="0"
     style="fill:#ffffff;stroke:none;fill-opacity:1;opacity:0.10649351" /><polygon
     class="st1"
     points="800.1,97.5 802.1,97.5 802.1,77.2 800.1,77.2 800.1,86.3 440.1,86.3 440.1,88.3 800.1,88.3 "
     id="polygon32"
     style="fill:#ffffff;stroke:none;fill-opacity:1;opacity:0.10649351" /><path
     class="st1"
     d="m 500.1,320.8 h 302 V 162.5 h -302 z M 653.2,241.7 800,165.2 v 153 z M 797,318.8 H 505.2 l 145.9,-76 z M 651.1,240.5 505.2,164.5 H 797 Z m -2.2,1.2 -146.8,76.5 v -153 z"
     id="path34"
     inkscape:connector-curvature="0"
     style="fill:#ffffff;stroke:none;fill-opacity:1;opacity:0.10649351" /><path
     class="st1"
     d="m 799.3,580.4 c -11.8,0 -18,-20.6 -24,-40.5 -6.3,-20.6 -12.7,-41.9 -26,-41.9 -13.2,0 -19.7,21.3 -26,41.9 -6,19.9 -12.3,40.5 -24,40.5 -11.7,0 -18,-20.6 -24,-40.5 -6.3,-20.6 -12.7,-41.9 -26,-41.9 -13.2,0 -19.7,21.3 -26,41.9 -6,19.9 -12.3,40.5 -24,40.5 -11.8,0 -18,-20.6 -24,-40.5 -6.3,-20.6 -12.7,-41.9 -26,-41.9 -13.3,0 -19.7,21.3 -26,41.9 -6,19.9 -12.3,40.5 -24,40.5 v 2 c 13.2,0 19.7,-21.3 26,-41.9 6,-19.9 12.3,-40.5 24,-40.5 11.7,0 18,20.6 24,40.5 6.3,20.6 12.7,41.9 26,41.9 13.2,0 19.7,-21.3 26,-41.9 6,-19.9 12.3,-40.5 24,-40.5 11.8,0 18,20.6 24,40.5 6.3,20.6 12.7,41.9 26,41.9 13.3,0 19.7,-21.3 26,-41.9 6,-19.9 12.3,-40.5 24,-40.5 11.7,0 18,20.6 24,40.5 6.3,20.6 12.7,41.9 26,41.9 z"
     id="path36"
     inkscape:connector-curvature="0"
     style="fill:#ffffff;stroke:none;fill-opacity:1;opacity:0.10649351" /><path
     class="st1"
     d="m 598.1,654.9 9.1,9.1 9.1,-9.1 -9.1,-9.1 z m 9.1,4.9 -4.8,-4.8 4.8,-4.8 4.8,4.8 z"
     id="path38"
     inkscape:connector-curvature="0"
     style="fill:#ffffff;stroke:none;fill-opacity:1;opacity:0.10649351" /><rect
     x="89.231392"
     y="1015.4458"
     transform="rotate(-45)"
     class="st1"
     width="12.799877"
     height="12.799877"
     id="rect40"
     style="fill:#ffffff;stroke-width:0.9999904;stroke:none;fill-opacity:1;opacity:0.10649351" /><rect
     x="626.79999"
     y="653.40002"
     class="st1"
     width="139.5"
     height="3"
     id="rect42"
     style="fill:#ffffff;stroke:none;fill-opacity:1;opacity:0.10649351" /><rect
     x="368.89999"
     y="369.60001"
     class="st1"
     width="12"
     height="12"
     id="rect44"
     style="fill:#ffffff;stroke:none;fill-opacity:1;opacity:0.10649351" /><rect
     x="10.8552"
     y="541.98901"
     transform="rotate(-45)"
     class="st1"
     width="11.999885"
     height="11.999885"
     id="rect46"
     style="fill:#ffffff;stroke-width:0.9999904;stroke:none;fill-opacity:1;opacity:0.10649351" /><polygon
     class="st1"
     points="416.5,382 431.3,382 423.9,369.2 "
     id="polygon48"
     style="fill:#ffffff;stroke:none;fill-opacity:1;opacity:0.10649351" /><path
     class="st1"
     d="m 441.7,375.6 c 0,3.7 3,6.7 6.7,6.7 3.7,0 6.7,-3 6.7,-6.7 0,-3.7 -3,-6.7 -6.7,-6.7 -3.7,0 -6.7,3 -6.7,6.7 z"
     id="path50"
     inkscape:connector-curvature="0"
     style="fill:#ffffff;stroke:none;fill-opacity:1;opacity:0.10649351" /><path
     class="st1"
     d="m 608.3,443 c -4.2,0 -7.7,3.4 -7.7,7.7 0,4.3 3.4,7.7 7.7,7.7 4.3,0 7.7,-3.4 7.7,-7.7 0,-4.3 -3.5,-7.7 -7.7,-7.7 z m 0,13.3 c -3.1,0 -5.7,-2.5 -5.7,-5.7 0,-3.2 2.5,-5.7 5.7,-5.7 3.2,0 5.7,2.5 5.7,5.7 0,3.2 -2.6,5.7 -5.7,5.7 z"
     id="path52"
     inkscape:connector-curvature="0"
     style="fill:#ffffff;stroke:none;fill-opacity:1;opacity:0.10649351" /><polygon
     class="st1"
     points="609.3,374.6 469.3,374.6 469.3,376.6 607.3,376.6 607.3,434.8 609.3,434.8 "
     id="polygon54"
     style="fill:#ffffff;stroke:none;fill-opacity:1;opacity:0.10649351" /><path
     class="st1"
     d="m 1215.8,382.6 h 11.3 v -11.7 h -11.3 z m 2,-9.8 h 7.3 v 7.7 h -7.3 z"
     id="path56"
     inkscape:connector-curvature="0"
     style="fill:#ffffff;stroke:none;fill-opacity:1;opacity:0.10649351" /><path
     class="st1"
     d="m 1198.6,370.8 h -11.3 v 11.7 h 11.3 z m -2,9.8 h -7.3 v -7.7 h 7.3 z"
     id="path58"
     inkscape:connector-curvature="0"
     style="fill:#ffffff;stroke:none;fill-opacity:1;opacity:0.10649351" /><path
     class="st1"
     d="m 1170.1,370.8 h -11.3 v 11.7 h 11.3 z m -2,9.8 h -7.3 v -7.7 h 7.3 z"
     id="path60"
     inkscape:connector-curvature="0"
     style="fill:#ffffff;stroke:none;fill-opacity:1;opacity:0.10649351" /><path
     class="st1"
     d="m 1130.4,382.6 h 11.3 v -11.7 h -11.3 z m 2,-9.8 h 7.3 v 7.7 h -7.3 z"
     id="path62"
     inkscape:connector-curvature="0"
     style="fill:#ffffff;stroke:none;fill-opacity:1;opacity:0.10649351" /><polygon
     class="st1"
     points="1220.5,665 1222.5,665 1222.5,470.4 1222.5,469.4 1222.5,397.7 1220.5,397.7 1220.5,469.4 1194,469.4 1194,397.7 1192,397.7 1192,469.4 1165.5,469.4 1165.5,397.7 1163.5,397.7 1163.5,469.4 1137.1,469.4 1137.1,397.7 1135.1,397.7 1135.1,471.4 1220.5,471.4 "
     id="polygon64"
     style="fill:#ffffff;stroke:none;fill-opacity:1;opacity:0.10649351" /><circle
     class="st1"
     cx="1221.5"
     cy="683.40002"
     r="7"
     id="circle66"
     style="fill:#ffffff;stroke:none;fill-opacity:1;opacity:0.10649351" /><path
     class="st1"
     d="m 443.2,442.9 h -77 V 485 h 77 z m -2,40.1 h -73 v -38.1 h 73 z"
     id="path68"
     inkscape:connector-curvature="0"
     style="fill:#ffffff;stroke:none;fill-opacity:1;opacity:0.10649351" /><path
     class="st1"
     d="m 443.2,499.5 h -77 v 42.1 h 77 z m -2,40.2 h -73 v -38.1 h 73 z"
     id="path70"
     inkscape:connector-curvature="0"
     style="fill:#ffffff;stroke:none;fill-opacity:1;opacity:0.10649351" /><path
     class="st1"
     d="m 443.2,556.2 h -77 v 42.1 h 77 z m -2,40.1 h -73 v -38.1 h 73 z"
     id="path72"
     inkscape:connector-curvature="0"
     style="fill:#ffffff;stroke:none;fill-opacity:1;opacity:0.10649351" /><circle
     class="st1"
     cx="404.70001"
     cy="463.89999"
     r="7.5"
     id="circle74"
     style="fill:#ffffff;stroke:none;fill-opacity:1;opacity:0.10649351" /><path
     class="st1"
     d="m 793.2,730.3 h -26.1 v -8.8 h 7.1 v -16.1 h -16.1 v 16.1 h 7.1 v 8.8 h -26.1 v 10.8 H 732 v 16.1 h 16.1 V 741.1 H 741 v -8.8 h 24.1 v 8.8 H 758 v 16.1 h 16.1 V 741.1 H 767 v -8.8 h 24.1 v 8.8 H 784 v 16.1 h 16.1 V 741.1 H 793 v -10.8 z m -33.1,-22.9 h 12.1 v 12.1 h -12.1 z m -13.9,47.8 h -12.1 v -12.1 h 12.1 z m 26,0 h -12.1 v -12.1 h 12.1 z m 26.1,0 h -12.1 v -12.1 h 12.1 z"
     id="path76"
     inkscape:connector-curvature="0"
     style="fill:#ffffff;stroke:none;fill-opacity:1;opacity:0.10649351" /><rect
     x="367.20001"
     y="671.5"
     class="st1"
     width="33"
     height="2"
     id="rect78"
     style="fill:#ffffff;stroke:none;fill-opacity:1;opacity:0.10649351" /><polygon
     class="st1"
     points="383.7,663 398.2,648.4 396.8,647 384.7,659.1 384.7,628.6 382.7,628.6 382.7,659.1 370.6,647 369.1,648.4 "
     id="polygon80"
     style="fill:#ffffff;stroke:none;fill-opacity:1;opacity:0.10649351" /><path
     class="st1"
     d="m 914.2,183.4 50.6,-31.6 -17.7,-11.1 17.7,-11.1 -17.7,-11.1 17.7,-11.1 -50.6,-31.4 -50.6,31.6 17.7,11.1 -17.7,11.1 17.7,11.1 -17.7,11.1 z m 0,-105 46.9,29.2 -46.9,29.2 -46.9,-29.2 z m -31,41.4 31,19.3 31,-19.3 15.8,9.9 -46.9,29.2 -46.9,-29.2 z m 31,41.5 31,-19.3 15.8,9.9 -46.8,29.1 -46.9,-29.2 15.8,-9.9 z"
     id="path82"
     inkscape:connector-curvature="0"
     style="fill:#ffffff;stroke:none;fill-opacity:1;opacity:0.10649351" /><polygon
     class="st1"
     points="870.7,375.6 870.7,418.8 859.5,407.5 858.1,409 871.7,422.6 885.4,409 884,407.5 872.7,418.8 872.7,375.6 "
     id="polygon84"
     style="fill:#ffffff;stroke:none;fill-opacity:1;opacity:0.10649351" /><polygon
     class="st1"
     points="905.6,374.2 891.9,387.8 893.3,389.3 904.6,378 904.6,421.2 906.6,421.2 906.6,378 917.9,389.3 919.3,387.8 "
     id="polygon86"
     style="fill:#ffffff;stroke:none;fill-opacity:1;opacity:0.10649351" /><polygon
     class="st1"
     points="1045.2,373.3 1045.2,389.4 1047.2,389.4 1047.2,369.8 1027.6,369.8 1027.6,371.8 1043.7,371.8 1012.9,402.7 1014.3,404.1 "
     id="polygon88"
     style="fill:#ffffff;stroke:none;fill-opacity:1;opacity:0.10649351" /><polygon
     class="st1"
     points="1006.6,369.8 992.7,369.8 992.7,424.3 1047.2,424.3 1047.2,409.8 1045.2,409.8 1045.2,422.3 994.7,422.3 994.7,371.8 1006.6,371.8 "
     id="polygon90"
     style="fill:#ffffff;stroke:none;fill-opacity:1;opacity:0.10649351" /><path
     class="st1"
     d="M 1026.1,463.8 H 878.4 c -11.4,0 -20.6,9.3 -20.6,20.6 v 319 c 0,11.4 9.3,20.6 20.6,20.6 h 147.7 c 11.4,0 20.6,-9.3 20.6,-20.6 v -319 c 0,-11.4 -9.2,-20.6 -20.6,-20.6 z m -166.3,29.4 90.8,152.6 -90.5,153 h -0.4 V 493.2 Z m 92,154.6 89.9,151 H 862.5 Z m 92.1,151 c 0,0 0,0 0,0 l -91,-153 91.6,-155 h 0.2 v 307.9 h -0.8 z m -92.2,-154.9 -91.1,-153 h 181.5 z M 1026.1,822 H 878.4 c -10.3,0 -18.6,-8.4 -18.6,-18.6 v -2.5 h 185 v 2.5 c -0.1,10.2 -8.4,18.6 -18.7,18.6 z m 18.6,-333.1 h -185 v -4.5 c 0,-10.3 8.4,-18.6 18.6,-18.6 H 1026 c 10.3,0 18.6,8.4 18.6,18.6 v 4.5 z"
     id="path92"
     inkscape:connector-curvature="0"
     style="fill:#ffffff;stroke:none;fill-opacity:1;opacity:0.10649351" /><path
     class="st1"
     d="m 1000.9,321.9 h 94.1 v -94.1 h -94.1 z m 2,-92.2 h 90.1 v 90.1 h -90.1 z"
     id="path94"
     inkscape:connector-curvature="0"
     style="fill:#ffffff;stroke:none;fill-opacity:1;opacity:0.10649351" /><path
     class="st1"
     d="M 914.2,226.5 859,322.1 h 110.4 z m 0,4 51.8,89.6 H 862.4 Z"
     id="path96"
     inkscape:connector-curvature="0"
     style="fill:#ffffff;stroke:none;fill-opacity:1;opacity:0.10649351" /><path
     class="st1"
     d="m 1181.7,224.1 c -28.7,0 -52.1,23.4 -52.1,52.1 0,28.7 23.4,52.1 52.1,52.1 28.7,0 52.1,-23.4 52.1,-52.1 0,-28.7 -23.3,-52.1 -52.1,-52.1 z m 0,102.2 c -27.6,0 -50.1,-22.5 -50.1,-50.1 0,-27.6 22.5,-50.1 50.1,-50.1 27.6,0 50.1,22.5 50.1,50.1 0,27.6 -22.4,50.1 -50.1,50.1 z"
     id="path98"
     inkscape:connector-curvature="0"
     style="fill:#ffffff;stroke:none;fill-opacity:1;opacity:0.10649351" /><path
     class="st1"
     d="m 1190.1,85.4 c -2.9,0 -5.2,2.3 -5.2,5.2 0,2.9 2.3,5.2 5.2,5.2 2.9,0 5.2,-2.3 5.2,-5.2 0.1,-2.9 -2.3,-5.2 -5.2,-5.2 z m 0,8.5 c -1.8,0 -3.2,-1.5 -3.2,-3.2 0,-1.7 1.5,-3.2 3.2,-3.2 1.7,0 3.2,1.5 3.2,3.2 0,1.7 -1.4,3.2 -3.2,3.2 z"
     id="path100"
     inkscape:connector-curvature="0"
     style="fill:#ffffff;stroke:none;fill-opacity:1;opacity:0.10649351" /><path
     class="st1"
     d="m 1190.1,110.4 c -2.9,0 -5.2,2.3 -5.2,5.2 0,2.9 2.3,5.2 5.2,5.2 2.9,0 5.2,-2.3 5.2,-5.2 0.1,-2.9 -2.3,-5.2 -5.2,-5.2 z m 0,8.5 c -1.8,0 -3.2,-1.5 -3.2,-3.2 0,-1.7 1.5,-3.2 3.2,-3.2 1.7,0 3.2,1.5 3.2,3.2 0,1.7 -1.4,3.2 -3.2,3.2 z"
     id="path102"
     inkscape:connector-curvature="0"
     style="fill:#ffffff;stroke:none;fill-opacity:1;opacity:0.10649351" /><path
     class="st1"
     d="m 1190.1,135.4 c -2.9,0 -5.2,2.3 -5.2,5.2 0,2.9 2.3,5.2 5.2,5.2 2.9,0 5.2,-2.3 5.2,-5.2 0.1,-2.9 -2.3,-5.2 -5.2,-5.2 z m 0,8.5 c -1.8,0 -3.2,-1.5 -3.2,-3.2 0,-1.7 1.5,-3.2 3.2,-3.2 1.7,0 3.2,1.5 3.2,3.2 0,1.7 -1.4,3.2 -3.2,3.2 z"
     id="path104"
     inkscape:connector-curvature="0"
     style="fill:#ffffff;stroke:none;fill-opacity:1;opacity:0.10649351" /><rect
     x="1086.2"
     y="177.7"
     class="st1"
     width="59.400002"
     height="2"
     id="rect106"
     style="fill:#ffffff;stroke:none;fill-opacity:1;opacity:0.10649351" /><rect
     x="1173.4"
     y="177.7"
     class="st1"
     width="59.400002"
     height="2"
     id="rect108"
     style="fill:#ffffff;stroke:none;fill-opacity:1;opacity:0.10649351" /><path
     class="st1"
     d="m 1151.7,178.7 c 0,4.3 3.5,7.8 7.8,7.8 4.3,0 7.8,-3.5 7.8,-7.8 0,-4.3 -3.5,-7.8 -7.8,-7.8 -4.3,0 -7.8,3.5 -7.8,7.8 z m 13.5,0 c 0,3.2 -2.6,5.8 -5.8,5.8 -3.2,0 -5.8,-2.6 -5.8,-5.8 0,-3.2 2.6,-5.8 5.8,-5.8 3.2,0 5.8,2.6 5.8,5.8 z"
     id="path110"
     inkscape:connector-curvature="0"
     style="fill:#ffffff;stroke:none;fill-opacity:1;opacity:0.10649351" /><path
     class="st1"
     d="m 1158.5,164.5 h 2 v -10.3 h 41.7 v -25 -2 -23 -2 -25 h -85.3 v 25 2 23 2 25 h 41.7 v 10.3 z m -39.7,-85.4 h 81.3 v 23 h -81.3 z m 0,25 h 81.3 v 23 h -81.3 z m 0,25 h 81.3 v 23 h -81.3 z"
     id="path112"
     inkscape:connector-curvature="0"
     style="fill:#ffffff;stroke:none;fill-opacity:1;opacity:0.10649351" /><path
     class="st1"
     d="m 1130.2,784.7 v -9 c 0,-23.9 19.4,-43.3 43.3,-43.3 7.8,0 15.4,2.1 22.1,6.1 l 1,-1.7 c -7,-4.1 -15,-6.3 -23.1,-6.3 -25,0 -45.3,20.3 -45.3,45.3 v 8.7 l -14.4,-14.4 -1.4,1.4 16.9,16.9 16.6,-16.6 -1.4,-1.4 z"
     id="path114"
     inkscape:connector-curvature="0"
     style="fill:#ffffff;stroke:none;fill-opacity:1;opacity:0.10649351" /><path
     class="st1"
     d="m 1200,778.5 1.4,1.4 14.4,-14.4 v 9 c 0,23.9 -19.4,43.3 -43.3,43.3 -7.8,0 -15.4,-2.1 -22.1,-6.1 l -1,1.7 c 7,4.1 15,6.3 23.1,6.3 25,0 45.3,-20.3 45.3,-45.3 v -8.7 l 14.4,14.4 1.4,-1.4 -16.9,-16.9 z"
     id="path116"
     inkscape:connector-curvature="0"
     style="fill:#ffffff;stroke:none;fill-opacity:1;opacity:0.10649351" /><polygon
     class="st1"
     points="371.7,315.8 382.7,304.8 371.7,293.8 370.3,295.2 379.9,304.8 370.3,314.4 "
     id="polygon118"
     style="fill:#ffffff;stroke:none;fill-opacity:1;opacity:0.10649351" /><rect
     x="389.70001"
     y="320.60001"
     class="st1"
     width="29.299999"
     height="2"
     id="rect120"
     style="fill:#ffffff;stroke:none;fill-opacity:1;opacity:0.10649351" /><path
     class="st1"
     d="m 294.2,382.6 h 11.3 v -11.7 h -11.3 z m 2,-9.8 h 7.3 v 7.7 h -7.3 z"
     id="path122"
     inkscape:connector-curvature="0"
     style="fill:#ffffff;stroke:none;fill-opacity:1;opacity:0.10649351" /><path
     class="st1"
     d="m 277,370.8 h -11.3 v 11.7 H 277 Z m -2,9.8 h -7.3 v -7.7 h 7.3 z"
     id="path124"
     inkscape:connector-curvature="0"
     style="fill:#ffffff;stroke:none;fill-opacity:1;opacity:0.10649351" /><path
     class="st1"
     d="m 248.5,370.8 h -11.3 v 11.7 h 11.3 z m -2,9.8 h -7.3 v -7.7 h 7.3 z"
     id="path126"
     inkscape:connector-curvature="0"
     style="fill:#ffffff;stroke:none;fill-opacity:1;opacity:0.10649351" /><path
     class="st1"
     d="m 208.8,382.6 h 11.3 v -11.7 h -11.3 z m 2,-9.8 h 7.3 v 7.7 h -7.3 z"
     id="path128"
     inkscape:connector-curvature="0"
     style="fill:#ffffff;stroke:none;fill-opacity:1;opacity:0.10649351" /><polygon
     class="st1"
     points="298.8,665 300.8,665 300.8,470.4 300.8,469.4 300.8,397.7 298.8,397.7 298.8,469.4 272.4,469.4 272.4,397.7 270.4,397.7 270.4,469.4 243.9,469.4 243.9,397.7 241.9,397.7 241.9,469.4 215.4,469.4 215.4,397.7 213.4,397.7 213.4,471.4 298.8,471.4 "
     id="polygon130"
     style="fill:#ffffff;stroke:none;fill-opacity:1;opacity:0.10649351" /><circle
     transform="rotate(-67.499572)"
     class="st1"
     cx="-516.7121"
     cy="538.54047"
     id="ellipse132"
     r="7.0001769"
     style="fill:#ffffff;stroke-width:1.00002527;stroke:none;fill-opacity:1;opacity:0.10649351" /><polygon
     class="st1"
     points="123.5,373.3 123.5,389.4 125.5,389.4 125.5,369.8 106,369.8 106,371.8 122.1,371.8 91.3,402.7 92.7,404.1 "
     id="polygon134"
     style="fill:#ffffff;stroke:none;fill-opacity:1;opacity:0.10649351" /><polygon
     class="st1"
     points="85,369.8 71,369.8 71,424.3 125.5,424.3 125.5,409.8 123.5,409.8 123.5,422.3 73,422.3 73,371.8 85,371.8 "
     id="polygon136"
     style="fill:#ffffff;stroke:none;fill-opacity:1;opacity:0.10649351" /><path
     class="st1"
     d="m 79.3,321.9 h 94.1 V 227.8 H 79.3 Z m 2,-92.2 h 90.1 v 90.1 H 81.3 Z"
     id="path138"
     inkscape:connector-curvature="0"
     style="fill:#ffffff;stroke:none;fill-opacity:1;opacity:0.10649351" /><path
     class="st1"
     d="m 260.1,224.1 c -28.7,0 -52.1,23.4 -52.1,52.1 0,28.7 23.4,52.1 52.1,52.1 28.7,0 52.1,-23.4 52.1,-52.1 0,-28.7 -23.4,-52.1 -52.1,-52.1 z m 0,102.2 c -27.6,0 -50.1,-22.5 -50.1,-50.1 0,-27.6 22.5,-50.1 50.1,-50.1 27.6,0 50.1,22.5 50.1,50.1 0,27.6 -22.5,50.1 -50.1,50.1 z"
     id="path140"
     inkscape:connector-curvature="0"
     style="fill:#ffffff;stroke:none;fill-opacity:1;opacity:0.10649351" /><path
     class="st1"
     d="m 268.5,85.4 c -2.9,0 -5.2,2.3 -5.2,5.2 0,2.9 2.3,5.2 5.2,5.2 2.9,0 5.2,-2.3 5.2,-5.2 0.1,-2.9 -2.3,-5.2 -5.2,-5.2 z m 0,8.5 c -1.8,0 -3.2,-1.5 -3.2,-3.2 0,-1.7 1.5,-3.2 3.2,-3.2 1.7,0 3.2,1.5 3.2,3.2 0,1.7 -1.4,3.2 -3.2,3.2 z"
     id="path142"
     inkscape:connector-curvature="0"
     style="fill:#ffffff;stroke:none;fill-opacity:1;opacity:0.10649351" /><path
     class="st1"
     d="m 268.5,110.4 c -2.9,0 -5.2,2.3 -5.2,5.2 0,2.9 2.3,5.2 5.2,5.2 2.9,0 5.2,-2.3 5.2,-5.2 0.1,-2.9 -2.3,-5.2 -5.2,-5.2 z m 0,8.5 c -1.8,0 -3.2,-1.5 -3.2,-3.2 0,-1.7 1.5,-3.2 3.2,-3.2 1.7,0 3.2,1.5 3.2,3.2 0,1.7 -1.4,3.2 -3.2,3.2 z"
     id="path144"
     inkscape:connector-curvature="0"
     style="fill:#ffffff;stroke:none;fill-opacity:1;opacity:0.10649351" /><path
     class="st1"
     d="m 268.5,135.4 c -2.9,0 -5.2,2.3 -5.2,5.2 0,2.9 2.3,5.2 5.2,5.2 2.9,0 5.2,-2.3 5.2,-5.2 0.1,-2.9 -2.3,-5.2 -5.2,-5.2 z m 0,8.5 c -1.8,0 -3.2,-1.5 -3.2,-3.2 0,-1.7 1.5,-3.2 3.2,-3.2 1.7,0 3.2,1.5 3.2,3.2 0,1.7 -1.4,3.2 -3.2,3.2 z"
     id="path146"
     inkscape:connector-curvature="0"
     style="fill:#ffffff;stroke:none;fill-opacity:1;opacity:0.10649351" /><rect
     x="164.5"
     y="177.7"
     class="st1"
     width="59.400002"
     height="2"
     id="rect148"
     style="fill:#ffffff;stroke:none;fill-opacity:1;opacity:0.10649351" /><rect
     x="251.8"
     y="177.7"
     class="st1"
     width="59.400002"
     height="2"
     id="rect150"
     style="fill:#ffffff;stroke:none;fill-opacity:1;opacity:0.10649351" /><path
     class="st1"
     d="m 230.1,178.7 c 0,4.3 3.5,7.8 7.8,7.8 4.3,0 7.8,-3.5 7.8,-7.8 0,-4.3 -3.5,-7.8 -7.8,-7.8 -4.3,0 -7.8,3.5 -7.8,7.8 z m 13.5,0 c 0,3.2 -2.6,5.8 -5.8,5.8 -3.2,0 -5.8,-2.6 -5.8,-5.8 0,-3.2 2.6,-5.8 5.8,-5.8 3.2,0 5.8,2.6 5.8,5.8 z"
     id="path152"
     inkscape:connector-curvature="0"
     style="fill:#ffffff;stroke:none;fill-opacity:1;opacity:0.10649351" /><path
     class="st1"
     d="m 236.9,164.5 h 2 v -10.3 h 41.7 v -25 -2 -23 -2 -25 h -85.3 v 25 2 23 2 25 H 237 v 10.3 z M 197.2,79.1 h 81.3 v 23 h -81.3 z m 0,25 h 81.3 v 23 h -81.3 z m 0,25 h 81.3 v 23 h -81.3 z"
     id="path154"
     inkscape:connector-curvature="0"
     style="fill:#ffffff;stroke:none;fill-opacity:1;opacity:0.10649351" /><path
     class="st1"
     d="m 208.6,784.7 v -9 c 0,-23.9 19.4,-43.3 43.3,-43.3 7.8,0 15.4,2.1 22.1,6.1 l 1,-1.7 c -7,-4.1 -15,-6.3 -23.1,-6.3 -25,0 -45.3,20.3 -45.3,45.3 v 8.7 l -14.4,-14.5 -1.4,1.4 16.9,16.9 16.6,-16.6 -1.4,-1.4 z"
     id="path156"
     inkscape:connector-curvature="0"
     style="fill:#ffffff;stroke:none;fill-opacity:1;opacity:0.10649351" /><path
     class="st1"
     d="m 278.3,778.5 1.4,1.4 14.4,-14.4 v 9 c 0,23.9 -19.4,43.3 -43.3,43.3 -7.8,0 -15.4,-2.1 -22.1,-6.1 l -1,1.7 c 7,4.1 15,6.3 23.1,6.3 25,0 45.3,-20.3 45.3,-45.3 v -8.7 l 14.4,14.4 1.4,-1.4 -16.9,-16.9 z"
     id="path158"
     inkscape:connector-curvature="0"
     style="fill:#ffffff;stroke:none;fill-opacity:1;opacity:0.10649351" /><rect
     x="405.99414"
     y="1416.6521"
     transform="rotate(-45)"
     class="st1"
     width="11.999885"
     height="11.999885"
     id="rect160"
     style="fill:#ffffff;stroke-width:0.9999904;stroke:none;fill-opacity:1;opacity:0.10649351" /><path
     class="st1"
     d="m 1559.8,714.7 10.6,10.6 10.6,-10.6 -10.6,-10.6 z m 10.6,6.3 -6.3,-6.3 6.3,-6.3 6.3,6.3 z"
     id="path162"
     inkscape:connector-curvature="0"
     style="fill:#ffffff;stroke:none;fill-opacity:1;opacity:0.10649351" /><path
     class="st1"
     d="m 1559.8,737.4 10.6,10.6 10.6,-10.6 -10.6,-10.6 z m 10.6,6.3 -6.3,-6.3 6.3,-6.3 6.3,6.3 z"
     id="path164"
     inkscape:connector-curvature="0"
     style="fill:#ffffff;stroke:none;fill-opacity:1;opacity:0.10649351" /><path
     class="st1"
     d="m 1559.8,760.1 10.6,10.6 10.6,-10.6 -10.6,-10.6 z m 10.6,6.3 -6.3,-6.3 6.3,-6.3 6.3,6.3 z"
     id="path166"
     inkscape:connector-curvature="0"
     style="fill:#ffffff;stroke:none;fill-opacity:1;opacity:0.10649351" /><path
     class="st1"
     d="m 1559.8,782.7 10.6,10.6 10.6,-10.6 -10.6,-10.6 z m 10.6,6.4 -6.3,-6.3 6.3,-6.3 6.3,6.3 z"
     id="path168"
     inkscape:connector-curvature="0"
     style="fill:#ffffff;stroke:none;fill-opacity:1;opacity:0.10649351" /><path
     class="st1"
     d="m 1559.8,805.4 10.6,10.6 10.6,-10.6 -10.6,-10.6 z m 10.6,6.4 -6.3,-6.3 6.3,-6.3 6.3,6.3 z"
     id="path170"
     inkscape:connector-curvature="0"
     style="fill:#ffffff;stroke:none;fill-opacity:1;opacity:0.10649351" /><polygon
     class="st1"
     points="1473.3,806.9 1548.9,806.9 1548.9,803.9 1476.3,803.9 1476.3,784.2 1548.9,784.2 1548.9,781.2 1476.3,781.2 1476.3,761.6 1548.9,761.6 1548.9,758.6 1476.3,758.6 1476.3,738.9 1548.9,738.9 1548.9,735.9 1476.3,735.9 1476.3,716.2 1548.9,716.2 1548.9,713.2 1474.8,713.2 1473.3,713.2 1316.4,713.2 1316.4,716.2 1473.3,716.2 "
     id="polygon172"
     style="fill:#ffffff;stroke:none;fill-opacity:1;opacity:0.10649351" /><path
     class="st1"
     d="m 1331.7,232.7 c 23.3,0 42.2,-19 42.2,-42.2 0,-23.2 -19,-42.2 -42.2,-42.2 -23.2,0 -42.2,19 -42.2,42.2 0,23.2 18.9,42.2 42.2,42.2 z m 0,-82.5 c 22.2,0 40.2,18.1 40.2,40.2 0,22.1 -18.1,40.2 -40.2,40.2 -22.1,0 -40.2,-18.1 -40.2,-40.2 0,-22.1 18,-40.2 40.2,-40.2 z"
     id="path174"
     inkscape:connector-curvature="0"
     style="fill:#ffffff;stroke:none;fill-opacity:1;opacity:0.10649351" /><polygon
     class="st1"
     points="1320.2,192.3 1327.3,199.5 1343.3,183.5 1341.9,182.1 1327.3,196.6 1321.6,190.9 "
     id="polygon176"
     style="fill:#ffffff;stroke:none;fill-opacity:1;opacity:0.10649351" /><circle
     class="st1"
     cx="1300.6"
     cy="87.300003"
     r="10.1"
     id="circle178"
     style="fill:#ffffff;stroke:none;fill-opacity:1;opacity:0.10649351" /><path
     class="st1"
     d="m 1334.6,98.5 c 6.1,0 11.1,-5 11.1,-11.1 0,-6.1 -5,-11.1 -11.1,-11.1 -6.1,0 -11.1,5 -11.1,11.1 0,6.1 4.9,11.1 11.1,11.1 z m 0,-20.3 c 5,0 9.1,4.1 9.1,9.1 0,5 -4.1,9.1 -9.1,9.1 -5,0 -9.1,-4.1 -9.1,-9.1 0,-5 4,-9.1 9.1,-9.1 z"
     id="path180"
     inkscape:connector-curvature="0"
     style="fill:#ffffff;stroke:none;fill-opacity:1;opacity:0.10649351" /><path
     class="st1"
     d="m 1528.8,645.9 -9.1,9.1 9.1,9.1 9.1,-9.1 z m -4.9,9 4.8,-4.8 4.8,4.8 -4.8,4.8 z"
     id="path182"
     inkscape:connector-curvature="0"
     style="fill:#ffffff;stroke:none;fill-opacity:1;opacity:0.10649351" /><rect
     x="1290.5"
     y="369.60001"
     class="st1"
     width="12"
     height="12"
     id="rect184"
     style="fill:#ffffff;stroke:none;fill-opacity:1;opacity:0.10649351" /><rect
     x="662.5105"
     y="1193.67"
     transform="rotate(-45)"
     class="st1"
     width="11.999885"
     height="11.999885"
     id="rect186"
     style="fill:#ffffff;stroke-width:0.9999904;stroke:none;fill-opacity:1;opacity:0.10649351" /><polygon
     class="st1"
     points="1338.1,382 1352.9,382 1345.5,369.2 "
     id="polygon188"
     style="fill:#ffffff;stroke:none;fill-opacity:1;opacity:0.10649351" /><path
     class="st1"
     d="m 1363.3,375.6 c 0,3.7 3,6.7 6.7,6.7 3.7,0 6.7,-3 6.7,-6.7 0,-3.7 -3,-6.7 -6.7,-6.7 -3.7,0 -6.7,3 -6.7,6.7 z"
     id="path190"
     inkscape:connector-curvature="0"
     style="fill:#ffffff;stroke:none;fill-opacity:1;opacity:0.10649351" /><path
     class="st1"
     d="m 1522.2,450.7 c 0,4.2 3.4,7.7 7.7,7.7 4.3,0 7.7,-3.4 7.7,-7.7 0,-4.3 -3.4,-7.7 -7.7,-7.7 -4.3,0 -7.7,3.4 -7.7,7.7 z m 13.3,0 c 0,3.1 -2.5,5.7 -5.7,5.7 -3.2,0 -5.7,-2.5 -5.7,-5.7 0,-3.2 2.5,-5.7 5.7,-5.7 3.2,0 5.7,2.6 5.7,5.7 z"
     id="path192"
     inkscape:connector-curvature="0"
     style="fill:#ffffff;stroke:none;fill-opacity:1;opacity:0.10649351" /><polygon
     class="st1"
     points="1530.9,374.6 1390.9,374.6 1390.9,376.6 1528.9,376.6 1528.9,434.8 1530.9,434.8 "
     id="polygon194"
     style="fill:#ffffff;stroke:none;fill-opacity:1;opacity:0.10649351" /><path
     class="st1"
     d="m 1364.8,442.9 h -77 V 485 h 77 z m -2,40.1 h -73 v -38.1 h 73 z"
     id="path196"
     inkscape:connector-curvature="0"
     style="fill:#ffffff;stroke:none;fill-opacity:1;opacity:0.10649351" /><path
     class="st1"
     d="m 1364.8,499.5 h -77 v 42.1 h 77 z m -2,40.2 h -73 v -38.1 h 73 z"
     id="path198"
     inkscape:connector-curvature="0"
     style="fill:#ffffff;stroke:none;fill-opacity:1;opacity:0.10649351" /><path
     class="st1"
     d="m 1364.8,556.2 h -77 v 42.1 h 77 z m -2,40.1 h -73 v -38.1 h 73 z"
     id="path200"
     inkscape:connector-curvature="0"
     style="fill:#ffffff;stroke:none;fill-opacity:1;opacity:0.10649351" /><circle
     class="st1"
     cx="1326.3"
     cy="463.89999"
     r="7.5"
     id="circle202"
     style="fill:#ffffff;stroke:none;fill-opacity:1;opacity:0.10649351" /><rect
     x="1288.8"
     y="671.5"
     class="st1"
     width="33"
     height="2"
     id="rect204"
     style="fill:#ffffff;stroke:none;fill-opacity:1;opacity:0.10649351" /><polygon
     class="st1"
     points="1305.3,663 1319.8,648.4 1318.4,647 1306.3,659.1 1306.3,628.6 1304.3,628.6 1304.3,659.1 1292.2,647 1290.8,648.4 "
     id="polygon206"
     style="fill:#ffffff;stroke:none;fill-opacity:1;opacity:0.10649351" /><polygon
     class="st1"
     points="1293.3,315.8 1304.3,304.8 1293.3,293.8 1291.9,295.2 1301.5,304.8 1291.9,314.4 "
     id="polygon208"
     style="fill:#ffffff;stroke:none;fill-opacity:1;opacity:0.10649351" /><rect
     x="1311.4"
     y="320.60001"
     class="st1"
     width="29.299999"
     height="2"
     id="rect210"
     style="fill:#ffffff;stroke:none;fill-opacity:1;opacity:0.10649351" /><polygon
     class="st1"
     points="39.4,107.6 0,132.2 0,134.5 23.6,119.8 39.4,129.7 0,154.3 0,156.6 23.6,141.9 39.4,151.8 0,176.4 0,178.7 43.2,151.8 25.5,140.7 43.2,129.7 25.5,118.6 43.2,107.6 0,80.6 0,83 "
     id="polygon212"
     style="fill:#ffffff;stroke:none;fill-opacity:1;opacity:0.10649351" /><polygon
     class="st1"
     points="0,322.1 47.8,322.1 0,239.3 0,243.3 44.3,320.1 0,320.1 "
     id="polygon214"
     style="fill:#ffffff;stroke:none;fill-opacity:1;opacity:0.10649351" /><path
     class="st1"
     d="M 104.5,463.8 H 0 v 2 h 104.5 c 10.3,0 18.6,8.4 18.6,18.6 v 4.5 H 0 v 2 H 120.6 L 30.1,643.9 0,593.3 v 3.9 l 29,48.7 -29,49 v 3.9 l 30.1,-51 89.8,151 H 0 v 2 h 123.1 v 2.5 c 0,10.3 -8.4,18.6 -18.6,18.6 H 0 v 2 h 104.5 c 11.4,0 20.6,-9.3 20.6,-20.6 v -319 c 0,-11.3 -9.2,-20.5 -20.6,-20.5 z m 18.6,335 h -0.8 c 0,0 0,-0.1 0,-0.1 l -91,-152.9 91.6,-155 h 0.2 z"
     id="path216"
     inkscape:connector-curvature="0"
     style="fill:#ffffff;stroke:none;fill-opacity:1;opacity:0.10649351" /><rect
     x="1548.5"
     y="653.40002"
     class="st1"
     width="51.5"
     height="3"
     id="rect218"
     style="fill:#ffffff;stroke:none;fill-opacity:1;opacity:0.10649351" /><path
     class="st1"
     d="m 1600,550 c -1.1,-3.3 -2.1,-6.7 -3.1,-10.1 -6.3,-20.6 -12.7,-41.9 -26,-41.9 -13.2,0 -19.7,21.3 -26,41.9 -6,19.9 -12.3,40.5 -24,40.5 -11.8,0 -18,-20.6 -24,-40.5 -6.3,-20.6 -12.7,-41.9 -26,-41.9 -13.3,0 -19.7,21.3 -26,41.9 -6,19.9 -12.3,40.4 -24,40.4 v 2 c 13.2,0 19.7,-21.3 26,-41.9 6,-19.9 12.3,-40.5 24,-40.5 11.7,0 18,20.6 24,40.5 6.3,20.6 12.7,41.9 26,41.9 13.2,0 19.7,-21.3 26,-41.9 6,-19.9 12.3,-40.4 24,-40.4 11.7,0 18,20.6 24,40.5 1.6,5.3 3.3,10.7 5,15.8 V 550 Z"
     id="path220"
     inkscape:connector-curvature="0"
     style="fill:#ffffff;stroke:none;fill-opacity:1;opacity:0.10649351" /><path
     class="st1"
     d="m 1600,318.8 h -173.2 l 145.9,-76 27.3,14.2 v -2.3 l -25.1,-13.1 25.1,-13.1 v -2.3 l -27.3,14.2 -145.9,-76 H 1600 v -2 H 1421.7 V 320.7 H 1600 Z m -176.3,-153.6 146.8,76.5 -146.8,76.5 z"
     id="path222"
     inkscape:connector-curvature="0"
     style="fill:#ffffff;stroke:none;fill-opacity:1;opacity:0.10649351" /><rect
     x="1361.7"
     y="86.300003"
     class="st1"
     width="238.3"
     height="2"
     id="rect224"
     style="fill:#ffffff;stroke:none;fill-opacity:1;opacity:0.10649351" /></g>
</svg>